<?xml version="1.0" encoding="UTF-8"?>
<svg width="222px" height="174px" viewBox="0 0 222 174" version="1.1" xmlns="http://www.w3.org/2000/svg" xmlns:xlink="http://www.w3.org/1999/xlink">
    <!-- Generator: Sketch 63.1 (92452) - https://sketch.com -->
    <title>Shape</title>
    <desc>Created with Sketch.</desc>
    <g id="Page-1" stroke="none" stroke-width="1" fill="none" fill-rule="evenodd">
        <path d="M216.674055,86.1478595 L216.882115,86.1503777 C217.768702,86.1722014 218.460241,86.3358791 218.95673,86.6414109 C219.491411,86.9704451 219.758751,87.4228672 219.758751,87.9986771 C219.758751,88.8502951 219.394422,89.8112117 218.665765,90.8814269 L198.412655,119.709351 L198.835184,119.780225 C205.705057,120.966854 211.034408,123.575504 214.823238,127.606173 C218.68939,131.719101 220.622466,137.107037 220.622466,143.76998 C220.622466,149.528079 219.100683,154.689803 216.057116,159.255153 C213.013549,163.820503 208.67441,167.419315 203.039699,170.051589 C197.404988,172.683863 190.927126,174 183.606115,174 C177.436723,174 171.781447,173.095156 166.640287,171.285468 C161.499127,169.475779 156.789825,166.884635 152.512379,163.512034 C151.443018,162.524931 150.908338,161.620087 150.908338,160.797501 C150.908338,160.262821 151.121119,159.62175 151.546681,158.874288 L151.648665,158.699908 L156.584178,150.556311 L156.70853,150.376049 C157.000933,149.966684 157.309082,149.636043 157.632975,149.384126 C158.003138,149.096221 158.352737,148.952269 158.681771,148.952269 C159.257581,148.952269 159.997908,149.281303 160.902752,149.939372 C167.730213,155.286178 175.215742,157.959581 183.359339,157.959581 C187.143233,157.959581 190.495269,157.383771 193.415448,156.232151 C196.335627,155.080532 198.618302,153.455925 200.263473,151.358332 C201.908644,149.260739 202.731229,146.854676 202.731229,144.140143 C202.731229,139.698181 200.757024,136.32558 196.808613,134.022341 C193.00644,131.804406 187.144756,130.654366 179.223561,130.57222 L178.300438,130.567481 C175.750422,130.567481 174.475415,129.991671 174.475415,128.840051 C174.475415,128.220693 174.80331,127.41917 175.459102,126.435483 L175.585905,126.248907 L192.243263,102.188278 L159.298711,102.188278 L159.088951,102.169633 C158.129268,102.072385 157.438296,101.831825 157.016036,101.447951 C156.590227,101.060852 156.364798,100.38229 156.339751,99.4122656 L156.337402,99.2269703 L156.337402,89.1091677 L156.340053,88.9122773 C156.366562,87.9458999 156.59189,87.2506383 157.016036,86.8264927 C157.440181,86.402347 158.135443,86.1770196 159.10182,86.1505105 L159.298711,86.1478595 L216.674055,86.1478595 Z M97.3856829,143.885099 C97.6608675,143.885099 97.9610688,143.978912 98.2862869,144.166538 L98.4624467,144.274423 C98.7153941,144.437032 99.0406123,144.674691 99.4381011,144.987401 L99.7497684,145.236005 L112.658426,155.29275 L112.658426,145.573732 L112.66124,145.463971 C112.694909,144.824271 113.030658,144.486652 113.668487,144.451113 L113.784181,144.447977 L120.351085,144.447977 L120.460846,144.450791 C121.100546,144.48446 121.438166,144.820209 121.473704,145.458038 L121.47684,145.573732 L121.47684,169.627364 L121.474712,169.767817 C121.4435,170.77492 121.068958,171.278471 120.351085,171.278471 C120.075901,171.278471 119.775699,171.184658 119.450481,170.997033 C119.179466,170.840678 118.795528,170.567057 118.298667,170.17617 L117.987,169.927565 L105.078342,159.870821 L105.078342,169.589839 L105.075528,169.6996 C105.041859,170.3393 104.70611,170.676919 104.068281,170.712458 L103.952587,170.715594 L97.3856829,170.715594 L97.2759218,170.712779 C96.6362219,170.679111 96.2986025,170.343362 96.2630637,169.705533 L96.2599279,169.589839 L96.2599279,145.536207 L96.262056,145.395753 C96.2932678,144.388651 96.6678101,143.885099 97.3856829,143.885099 Z M33.4052729,143.885099 C33.6804575,143.885099 33.9806588,143.978912 34.3058769,144.166538 L34.4820367,144.274423 C34.7349842,144.437032 35.0602023,144.674691 35.4576911,144.987401 L35.7693584,145.236005 L48.6780159,155.29275 L48.6780159,145.573732 L48.6808303,145.463971 C48.7144987,144.824271 49.0502477,144.486652 49.688077,144.451113 L49.803771,144.447977 L56.3706752,144.447977 L56.4804363,144.450791 C57.1201362,144.48446 57.4577556,144.820209 57.4932944,145.458038 L57.4964302,145.573732 L57.4964302,169.627364 L57.4943021,169.767817 C57.4630903,170.77492 57.088548,171.278471 56.3706752,171.278471 C56.0954906,171.278471 55.7952893,171.184658 55.4700712,170.997033 C55.1990561,170.840678 54.815118,170.567057 54.318257,170.17617 L54.0065897,169.927565 L41.0979322,159.870821 L41.0979322,169.589839 L41.0951178,169.6996 C41.0614494,170.3393 40.7257005,170.676919 40.0878711,170.712458 L39.9721772,170.715594 L33.4052729,170.715594 L33.2955118,170.712779 C32.6558119,170.679111 32.3181926,170.343362 32.2826537,169.705533 L32.2795179,169.589839 L32.2795179,145.536207 L32.281646,145.395753 C32.3128578,144.388651 32.6874002,143.885099 33.4052729,143.885099 Z M14.6051642,143.885099 C17.4070433,143.885099 19.9087211,144.460485 22.1101976,145.611257 C24.3116741,146.762029 26.0253234,148.381865 27.2511455,150.470766 C28.4769676,152.559667 29.0898787,154.942515 29.0898787,157.619311 C29.0898787,160.296106 28.4769676,162.666445 27.2511455,164.73033 C26.0253234,166.794214 24.3116741,168.401542 22.1101976,169.552314 C19.9087211,170.703085 17.4070433,171.278471 14.6051642,171.278471 C11.803285,171.278471 9.31411562,170.703085 7.13765592,169.552314 C4.96119623,168.401542 3.26005532,166.794214 2.03423319,164.73033 C0.808411063,162.666445 0.1955,160.296106 0.1955,157.619311 C0.1955,154.942515 0.808411063,152.559667 2.03423319,150.470766 C3.26005532,148.381865 4.96745042,146.762029 7.1564185,145.611257 C9.34538659,144.460485 11.8283018,143.885099 14.6051642,143.885099 Z M143.504113,144.447977 L143.613874,144.450791 C144.253574,144.48446 144.591194,144.820209 144.626733,145.458038 L144.629868,145.573732 L144.629868,150.076752 L144.627054,150.186513 C144.593386,150.826213 144.257637,151.163832 143.619807,151.199371 L143.504113,151.202507 L135.098476,151.202507 L134.995856,151.205187 C134.799806,151.215909 134.658895,151.258795 134.573124,151.333845 C134.485565,151.410459 134.436313,151.558898 134.425368,151.779163 L134.423023,151.87796 L134.423023,152.778564 L134.426086,152.881184 C134.438339,153.077234 134.487352,153.218144 134.573124,153.303916 C134.658895,153.389688 134.799806,153.438701 134.995856,153.450954 L135.098476,153.454017 L142.265783,153.454017 L142.375544,153.456831 C143.015244,153.4905 143.352863,153.826249 143.388402,154.464078 L143.391538,154.579772 L143.391538,158.895166 L143.388723,159.004927 C143.355055,159.644627 143.019306,159.982247 142.381477,160.017785 L142.265783,160.020921 L135.098476,160.020921 L134.995856,160.023602 C134.799806,160.034323 134.658895,160.077209 134.573124,160.152259 C134.485565,160.228873 134.436313,160.377313 134.425368,160.597577 L134.423023,160.696374 L134.423023,163.285611 L134.426086,163.388231 C134.438339,163.58428 134.487352,163.725191 134.573124,163.810963 C134.658895,163.896735 134.799806,163.945747 134.995856,163.958 L135.098476,163.961064 L143.541638,163.961064 L143.6514,163.963878 C144.291099,163.997547 144.628719,164.333295 144.664258,164.971125 L144.667393,165.086819 L144.667393,169.589839 L144.664579,169.6996 C144.630911,170.3393 144.295162,170.676919 143.657332,170.712458 L143.541638,170.715594 L126.730364,170.715594 L126.620602,170.712779 C125.980903,170.679111 125.643283,170.343362 125.607744,169.705533 L125.604609,169.589839 L125.604609,145.573732 L125.607423,145.463971 C125.641091,144.824271 125.97684,144.486652 126.61467,144.451113 L126.730364,144.447977 L143.504113,144.447977 Z M91.0064045,144.447977 L91.1161656,144.450791 C91.7558655,144.48446 92.0934848,144.820209 92.1290237,145.458038 L92.1321595,145.573732 L92.1321595,169.589839 L92.1293451,169.6996 C92.0956767,170.3393 91.7599278,170.676919 91.1220984,170.712458 L91.0064045,170.715594 L84.4395002,170.715594 L84.3297391,170.712779 C83.6900393,170.679111 83.3524199,170.343362 83.316881,169.705533 L83.3137452,169.589839 L83.3137452,145.573732 L83.3165596,145.463971 C83.350228,144.824271 83.6859769,144.486652 84.3238063,144.451113 L84.4395002,144.447977 L91.0064045,144.447977 Z M69.3168579,144.447977 L69.426619,144.450791 C70.0663188,144.48446 70.4039382,144.820209 70.4394771,145.458038 L70.4426129,145.573732 L70.4426129,162.234906 L70.4456762,162.337526 C70.4579293,162.533576 70.5069417,162.674487 70.5927136,162.760258 C70.6784854,162.84603 70.8193962,162.895043 71.0154461,162.907296 L71.1180659,162.910359 L79.5612285,162.910359 L79.6709896,162.913173 C80.3106895,162.946842 80.6483089,163.282591 80.6838477,163.92042 L80.6869835,164.036114 L80.6869835,169.589839 L80.6841691,169.6996 C80.6505007,170.3393 80.3147518,170.676919 79.6769224,170.712458 L79.5612285,170.715594 L62.7499536,170.715594 L62.6401925,170.712779 C62.0004926,170.679111 61.6628733,170.343362 61.6273344,169.705533 L61.6241986,169.589839 L61.6241986,145.573732 L61.627013,145.463971 C61.6606814,144.824271 61.9964303,144.486652 62.6342597,144.451113 L62.7499536,144.447977 L69.3168579,144.447977 Z M14.6051642,151.840435 C13.5544595,151.840435 12.6163303,152.07184 11.7907766,152.53465 C10.965223,152.997461 10.3210409,153.66666 9.85823054,154.542247 C9.39542014,155.417834 9.16401495,156.443522 9.16401495,157.619311 C9.16401495,158.795099 9.39542014,159.814533 9.85823054,160.677612 C10.3210409,161.54069 10.965223,162.197381 11.7907766,162.647683 C12.6163303,163.097985 13.5544595,163.323136 14.6051642,163.323136 C15.6558689,163.323136 16.6002522,163.097985 17.4383143,162.647683 C18.2763764,162.197381 18.9330668,161.54069 19.4083856,160.677612 C19.8837044,159.814533 20.1213638,158.795099 20.1213638,157.619311 C20.1213638,156.443522 19.8837044,155.417834 19.4083856,154.542247 C18.9330668,153.66666 18.2763764,152.997461 17.4383143,152.53465 C16.6002522,152.07184 15.6558689,151.840435 14.6051642,151.840435 Z M100.58518,84.232168 C101.088908,84.232168 101.478152,84.3695482 101.752913,84.6443088 C102.000197,84.8915933 102.191843,85.2687021 102.327849,85.7756353 L102.371124,85.9494214 L104.500518,93.0245054 L104.55519,93.1983335 C104.656122,93.5403824 104.706589,93.8487871 104.706589,94.1235476 C104.706589,94.5356884 104.569208,94.8562424 104.294448,95.0852095 C104.019687,95.3141766 103.561753,95.4973503 102.920645,95.6347306 C98.5702697,96.7337728 95.170108,98.6113032 92.7201598,101.267322 C90.2702116,103.92334 89.0452375,107.151777 89.0452375,110.952631 C89.0452375,114.753485 90.2702116,117.981922 92.7201598,120.63794 C95.170108,123.293959 98.5702697,125.171489 102.920645,126.270531 C103.561753,126.407912 104.019687,126.602534 104.294448,126.854398 C104.569208,127.106261 104.706589,127.438264 104.706589,127.850405 C104.706589,128.09082 104.653998,128.383826 104.548816,128.729424 L104.500518,128.880757 L102.371124,135.955841 L102.314455,136.129283 C102.139295,136.634156 101.917769,136.999931 101.649878,137.226608 C101.35222,137.478472 100.928631,137.604404 100.37911,137.604404 L100.268443,137.600588 C100.052196,137.587867 99.6769442,137.543346 99.1426875,137.467024 C94.4259648,136.459568 90.3045566,134.70797 86.778463,132.212228 C83.2523693,129.716487 80.5162122,126.648327 78.5699917,123.00775 C76.6237711,119.367173 75.6506609,115.394593 75.6506609,111.090011 C75.6506609,106.739636 76.6123228,102.732711 78.5356466,99.0692374 C80.4589704,95.4057635 83.1951275,92.3147074 86.7441179,89.796069 C90.2931083,87.2774307 94.4259648,85.4914871 99.1426875,84.4382384 C99.6922086,84.3008581 100.17304,84.232168 100.58518,84.232168 Z M142.692234,86.9110833 L142.827161,86.9134489 C143.975268,86.9544527 144.570582,87.528506 144.613105,88.6356087 L144.615558,88.765717 L144.615558,96.3903221 L144.612916,96.5451798 C144.591781,97.1499781 144.443833,97.5791899 144.169072,97.832815 C143.894311,98.0864401 143.453719,98.2230075 142.847295,98.2425171 L142.692234,98.2449558 L125.65708,98.2449558 L125.524508,98.24736 C125.141217,98.2617849 124.887751,98.341122 124.764108,98.4853713 C124.641993,98.6278397 124.574151,98.8698099 124.560582,99.2112819 L124.558038,99.343998 L124.558038,102.022913 L124.560582,102.155629 C124.574151,102.497101 124.641993,102.739072 124.764108,102.88154 C124.887751,103.025789 125.141217,103.105126 125.524508,103.119551 L125.65708,103.121955 L140.42546,103.121955 L140.582159,103.125056 C141.143605,103.147794 141.560755,103.295589 141.833607,103.568441 C142.10646,103.841294 142.254255,104.258443 142.276993,104.81989 L142.280093,104.976589 L142.280093,112.532504 L142.276993,112.689204 C142.254255,113.25065 142.10646,113.667799 141.833607,113.940652 C141.560755,114.213504 141.143605,114.3613 140.582159,114.384037 L140.42546,114.387138 L125.65708,114.387138 L125.524508,114.389542 C125.141217,114.403967 124.887751,114.483304 124.764108,114.627553 C124.641993,114.770022 124.574151,115.011992 124.560582,115.353464 L124.558038,115.48618 L124.558038,122.561264 L124.560582,122.69398 C124.574151,123.035452 124.641993,123.277422 124.764108,123.419891 C124.887751,123.56414 125.141217,123.643477 125.524508,123.657902 L125.65708,123.660306 L142.760924,123.660306 L142.915985,123.662745 C143.522409,123.682255 143.963002,123.818822 144.237762,124.072447 C144.512523,124.326072 144.660471,124.755284 144.681606,125.360082 L144.684248,125.51494 L144.684248,133.139545 L144.681795,133.269653 C144.639272,134.376756 144.043958,134.950809 142.895851,134.991813 L142.760924,134.994179 L113.361546,134.994179 L113.204846,134.991078 C112.6434,134.968341 112.22625,134.820545 111.953398,134.547693 C111.680546,134.27484 111.53275,133.857691 111.510013,133.296244 L111.506912,133.139545 L111.506912,88.765717 L111.510013,88.6090176 C111.53275,88.0475711 111.680546,87.6304217 111.953398,87.3575692 C112.22625,87.0847167 112.6434,86.9369216 113.204846,86.9141839 L113.361546,86.9110833 L142.692234,86.9110833 Z M66.5148727,86.9110833 L66.6699336,86.9137252 C67.2763578,86.9348606 67.7169501,87.0828086 67.9917107,87.3575692 C68.2645631,87.6304217 68.4123582,88.0475711 68.4350959,88.6090176 L68.4381965,88.765717 L68.4381965,133.139545 L68.4350959,133.296244 C68.4123582,133.857691 68.2645631,134.27484 67.9917107,134.547693 C67.7169501,134.822453 67.2763578,134.970401 66.6699336,134.991537 L66.5148727,134.994179 L57.2417043,134.994179 L57.0850049,134.991078 C56.5235585,134.968341 56.106409,134.820545 55.8335565,134.547693 C55.560704,134.27484 55.4129089,133.857691 55.3901712,133.296244 L55.3870706,133.139545 L55.3870706,88.765717 L55.3901712,88.6090176 C55.4129089,88.0475711 55.560704,87.6304217 55.8335565,87.3575692 C56.106409,87.0847167 56.5235585,86.9369216 57.0850049,86.9141839 L57.2417043,86.9110833 L66.5148727,86.9110833 Z M21.7289038,86.9110833 L22.2345552,86.9137325 C27.6042863,86.9702489 32.2097003,87.9310277 36.0507972,89.796069 C40.0119284,91.7193928 43.0228461,94.4441016 45.0835501,97.9701953 C47.1442542,101.496289 48.1746063,105.640594 48.1746063,110.40311 C48.1746063,115.394593 47.0870125,119.73352 44.9118248,123.419891 C42.7366372,127.106261 39.5768909,129.956902 35.432586,131.971813 C31.4101724,133.927461 26.6004665,134.934045 21.0034682,134.991564 L20.4924813,134.994179 L4.14422882,134.994179 L3.98752944,134.991078 C3.42608298,134.968341 3.00893351,134.820545 2.73608102,134.547693 C2.46322853,134.27484 2.31543344,133.857691 2.29269573,133.296244 L2.28959513,133.139545 L2.28959513,88.765717 L2.29269573,88.6090176 C2.31543344,88.0475711 2.46322853,87.6304217 2.73608102,87.3575692 C3.00893351,87.0847167 3.42608298,86.9369216 3.98752944,86.9141839 L4.14422882,86.9110833 L21.7289038,86.9110833 Z M20.7672418,98.6570966 L16.4397632,98.6570966 L16.3071913,98.6595008 C15.9239003,98.6739257 15.6704337,98.7532628 15.5467915,98.8975121 C15.4246757,99.0399805 15.3568336,99.2819507 15.3432651,99.6234227 L15.3407211,99.7561388 L15.3407211,122.149123 L15.3432651,122.281839 C15.3568336,122.623311 15.4246757,122.865282 15.5467915,123.00775 C15.6704337,123.151999 15.9239003,123.231336 16.3071913,123.245761 L16.4397632,123.248165 L20.4924813,123.248165 C25.1634106,123.248165 28.7009526,122.149123 31.1051074,119.951039 C33.5092622,117.752955 34.7113395,114.684795 34.7113395,110.746561 C34.7113395,108.273716 34.1847152,106.132873 33.1314664,104.324033 C32.0782176,102.515193 30.5097929,101.118493 28.4261921,100.133935 C26.4294079,99.1903992 24.0015416,98.6989745 21.1425929,98.6596606 L20.7672418,98.6570966 Z M101.747825,30.9413425 L101.94984,30.943966 C102.675698,30.9632056 103.238019,31.088263 103.636803,31.3191382 C104.038376,31.5516279 104.469214,31.9889687 104.929316,32.6311605 L105.044951,32.7959762 L113.425148,44.2672289 L121.805344,32.7959762 L121.92098,32.6311605 C122.381082,31.9889687 122.811919,31.5516279 123.213492,31.3191382 C123.612277,31.088263 124.174598,30.9632056 124.900455,30.943966 L125.102471,30.9413425 L135.612062,30.9413425 L135.775307,30.9447346 C136.198189,30.9628258 136.52157,31.0532819 136.745449,31.216103 C136.997313,31.3992767 137.123245,31.6282438 137.123245,31.9030044 C137.123245,32.1879412 137.014697,32.5090606 136.797603,32.8663623 L136.711104,33.0020466 L119.882021,54.9828902 L119.882021,77.1698043 L119.87892,77.3265037 C119.856182,77.8879501 119.708387,78.3050996 119.435535,78.5779521 C119.162682,78.8508046 118.745533,78.9985997 118.184086,79.0213374 L118.027387,79.024438 L108.685528,79.024438 L108.528829,79.0213374 C107.967383,78.9985997 107.550233,78.8508046 107.277381,78.5779521 C107.004528,78.3050996 106.856733,77.8879501 106.833995,77.3265037 L106.830895,77.1698043 L106.830895,55.1889606 L89.7957408,33.0020466 L89.7189414,32.8789767 C89.4495871,32.438215 89.3149099,32.1128909 89.3149099,31.9030044 C89.3149099,31.6282438 89.4408418,31.3992767 89.6927056,31.216103 C89.9165846,31.0532819 90.2218741,30.9628258 90.6085741,30.9447346 L90.7574027,30.9413425 L101.747825,30.9413425 Z M158.005046,29.8423003 C158.691948,29.8423003 159.333056,30.1170608 159.92837,30.6665819 C160.486478,31.1817579 161.064709,32.018919 161.663064,33.178065 L161.783004,33.4141874 L183.489087,76.7576635 L183.575586,76.9086122 C183.79268,77.3066192 183.901228,77.6684438 183.901228,77.9940859 C183.901228,78.651122 183.419401,78.9939235 182.455748,79.0224903 L182.321355,79.024438 L172.567355,79.024438 L172.375303,79.0226857 C171.561302,79.0074991 170.984211,78.8935996 170.644031,78.6809873 C170.305865,78.469633 169.987207,78.0436729 169.68806,77.4031069 L169.613679,77.2384944 L165.835722,69.2017485 L165.775512,69.0842968 C165.617214,68.7835301 165.477007,68.5822652 165.354891,68.480502 C165.232775,68.3787389 165.020203,68.3222038 164.717175,68.3108968 L164.599299,68.3087767 L150.929962,68.3087767 L150.812087,68.3108968 C150.509059,68.3222038 150.296487,68.3787389 150.174371,68.480502 C150.052255,68.5822652 149.912048,68.7835301 149.75375,69.0842968 L149.69354,69.2017485 L145.984272,77.2384944 L145.909689,77.4031069 C145.608915,78.0436729 145.278878,78.469633 144.919575,78.6809873 C144.560273,78.8923416 144.015629,79.0061477 143.285644,79.0224057 L143.099287,79.024438 L133.688738,79.024438 L133.554344,79.0224903 C132.590691,78.9939235 132.108865,78.651122 132.108865,77.9940859 C132.108865,77.6334627 132.196516,77.2728395 132.371819,76.9122163 L132.452316,76.7576635 L154.158399,33.4141874 L154.278338,33.178065 C154.876694,32.018919 155.454925,31.1817579 156.013032,30.6665819 C156.608347,30.1170608 157.272352,29.8423003 158.005046,29.8423003 Z M199.493889,30.9413425 L199.64895,30.9439844 C200.255374,30.9651198 200.695966,31.1130678 200.970727,31.3878284 C201.243579,31.6606808 201.391374,32.0778303 201.414112,32.6392768 L201.417213,32.7959762 L201.417213,66.0420022 L201.419757,66.1747183 C201.433325,66.5161903 201.501167,66.7581605 201.623283,66.9006289 C201.746925,67.0448782 202.000392,67.1242153 202.383683,67.1386402 L202.516255,67.1410444 L219.551409,67.1410444 L219.708108,67.144145 C220.269554,67.1668827 220.686704,67.3146778 220.959556,67.5875303 C221.232409,67.8603828 221.380204,68.2775322 221.402942,68.8389787 L221.406042,68.9956781 L221.406042,77.1698043 L221.402942,77.3265037 C221.380204,77.8879501 221.232409,78.3050996 220.959556,78.5779521 C220.686704,78.8508046 220.269554,78.9985997 219.708108,79.0213374 L219.551409,79.024438 L190.22072,79.024438 L190.064021,79.0213374 C189.502574,78.9985997 189.085425,78.8508046 188.812573,78.5779521 C188.53972,78.3050996 188.391925,77.8879501 188.369187,77.3265037 L188.366087,77.1698043 L188.366087,32.7959762 L188.369187,32.6392768 C188.391925,32.0778303 188.53972,31.6606808 188.812573,31.3878284 C189.085425,31.1149759 189.502574,30.9671808 190.064021,30.9444431 L190.22072,30.9413425 L199.493889,30.9413425 Z M80.1104316,68.446157 L80.267131,68.4492576 C80.8285774,68.4719953 81.2457269,68.6197904 81.5185794,68.8926429 C81.7933399,69.1674034 81.9412879,69.6079958 81.9624233,70.2144199 L81.9650653,70.3694808 L81.9650653,77.1698043 L81.9626997,77.2999125 C81.9216959,78.4070153 81.3476426,78.9810686 80.2405398,79.0220724 L80.1104316,79.024438 L54.9011515,79.024438 L54.7444521,79.0213374 C54.1830057,78.9985997 53.7658562,78.8508046 53.4930037,78.5779521 C53.2201512,78.3050996 53.0723561,77.8879501 53.0496184,77.3265037 L53.0465178,77.1698043 L53.0465178,70.3694808 L53.0491597,70.2144199 C53.0702952,69.6079958 53.2182432,69.1674034 53.4930037,68.8926429 C53.7658562,68.6197904 54.1830057,68.4719953 54.7444521,68.4492576 L54.9011515,68.446157 L80.1104316,68.446157 Z M23.1663085,30.9413425 L23.5790754,30.9428928 C30.010726,30.9914688 34.7959302,32.181581 37.9346878,34.5132296 C41.1402275,36.8944876 42.7429973,40.4663747 42.7429973,45.2288908 C42.7429973,51.2242518 40.0140234,55.4446704 34.5560756,57.8901466 L34.2941106,58.0052562 L45.2158423,76.8950438 L45.2963385,77.0173981 C45.4716415,77.3079001 45.5592929,77.6334627 45.5592929,77.9940859 C45.5592929,78.6497645 45.1003179,78.9925056 44.1823679,79.0223092 L44.0481099,79.024438 L33.8819697,79.024438 L33.6744768,79.0219993 C32.8599499,79.0024897 32.2307645,78.8659223 31.7869206,78.6122972 C31.3404347,78.3571624 30.9038201,77.8453741 30.4770768,77.0769324 L21.8611959,61.2336926 L21.7925057,61.1011207 C21.5864353,60.7178297 21.3803649,60.4643631 21.1742945,60.3407209 C20.9707682,60.2186051 20.6586945,60.150763 20.2380734,60.1371945 L20.0752523,60.1346505 L16.7094356,60.1346505 L16.5768637,60.1367112 C16.1935727,60.1490754 15.9401061,60.2170786 15.8164639,60.3407209 C15.6928216,60.4643631 15.6248184,60.7178297 15.6124542,61.1011207 L15.6103934,61.2336926 L15.6103934,77.1698043 L15.6072929,77.3265037 C15.5845551,77.8879501 15.43676,78.3050996 15.1639076,78.5779521 C14.889147,78.8527126 14.4485547,79.0006606 13.8421305,79.0217961 L13.6870696,79.024438 L4.4139012,79.024438 L4.25720183,79.0213374 C3.69575537,78.9985997 3.27860589,78.8508046 3.00575341,78.5779521 C2.73290092,78.3050996 2.58510582,77.8879501 2.56236812,77.3265037 L2.55926752,77.1698043 L2.55926752,32.7959762 L2.56236812,32.6392768 C2.58510582,32.0778303 2.73290092,31.6606808 3.00575341,31.3878284 C3.27860589,31.1149759 3.69575537,30.9671808 4.25720183,30.9444431 L4.4139012,30.9413425 L23.1663085,30.9413425 Z M67.6088267,29.9109904 C71.409681,29.9109904 74.7983944,30.6551336 77.7749669,32.1434199 C80.7515395,33.6317061 83.0641075,35.7153069 84.7126707,38.3942223 C86.361234,41.0731376 87.1855156,44.1527454 87.1855156,47.6330456 C87.1855156,51.1591393 86.3497856,54.2730922 84.6783257,56.9749042 C83.0068657,59.6767162 80.671401,61.7832137 77.6719317,63.2943967 C74.6724624,64.8055797 71.249404,65.5611712 67.4027563,65.5611712 C63.5561087,65.5611712 60.1444986,64.8170281 57.167926,63.3287418 C54.1913534,61.8404555 51.8787855,59.7568547 50.2302222,57.0779394 C48.5816589,54.3990241 47.7573773,51.3194163 47.7573773,47.839116 C47.7573773,44.3130224 48.5931073,41.1990695 50.2645673,38.4972575 C51.9360273,35.7954454 54.2829403,33.6889479 57.3053063,32.1777649 C60.3276723,30.6665819 63.7621791,29.9109904 67.6088267,29.9109904 Z M157.730286,49.5563694 L154.295779,56.9749042 L154.232813,57.066491 C154.13741,57.2191358 154.089709,57.3717805 154.089709,57.5244253 C154.089709,57.7795601 154.306877,57.9162394 154.741213,57.9344633 L154.8453,57.9365661 L160.615272,57.9365661 C161.118999,57.9365661 161.370863,57.7991858 161.370863,57.5244253 C161.370863,57.3717805 161.323162,57.2191358 161.227759,57.066491 L161.164793,56.9749042 L157.730286,49.5563694 Z M67.4714465,40.8327221 C66.1434372,40.8327221 64.9528081,41.1418277 63.8995594,41.760039 C62.8463106,42.3782502 62.0334773,43.2139802 61.4610595,44.2672289 C60.8886417,45.3204777 60.6024328,46.48821 60.6024328,47.7704259 C60.6024328,49.0526418 60.8886417,50.2203741 61.4610595,51.2736229 C62.0334773,52.3268716 62.8348623,53.1511533 63.8652143,53.7464678 C64.8955664,54.3417823 66.0976437,54.6394395 67.4714465,54.6394395 C68.7994558,54.6394395 69.9900848,54.3417823 71.0433336,53.7464678 C72.0965823,53.1511533 72.9094156,52.3268716 73.4818334,51.2736229 C74.0542512,50.2203741 74.3404601,49.0297451 74.3404601,47.7017358 C74.3404601,46.3737265 74.0542512,45.1945458 73.4818334,44.1641937 C72.9094156,43.1338417 72.1080307,42.3210084 71.0776786,41.7256939 C70.0473266,41.1303794 68.8452492,40.8327221 67.4714465,40.8327221 Z M22.4794071,41.8630742 L16.7094356,41.8630742 L16.5768637,41.8654783 C16.1935727,41.8799032 15.9401061,41.9592404 15.8164639,42.1034896 C15.6943481,42.2459581 15.6265059,42.4879283 15.6129375,42.8294002 L15.6103934,42.9621163 L15.6103934,48.319947 L15.6129375,48.4526631 C15.6265059,48.7941351 15.6943481,49.0361053 15.8164639,49.1785737 C15.9401061,49.322823 16.1935727,49.4021601 16.5768637,49.416585 L16.7094356,49.4189892 L22.410717,49.4189892 C24.8835619,49.4189892 26.6580571,49.1098836 27.7342025,48.4916723 C28.810348,47.8734611 29.3484207,46.9003508 29.3484207,45.5723415 C29.3484207,44.2443322 28.8332447,43.2941187 27.8028927,42.7217009 C26.8121695,42.1712991 25.1334443,41.8855136 22.7667168,41.8643443 L22.4794071,41.8630742 Z M67.6862641,0.227762128 C67.8104039,0.314078102 67.9181608,0.421834932 68.0044767,0.545974759 L74.0358066,9.22024698 L79.9533119,0.709677693 C80.1538402,0.42127731 80.5501953,0.350042987 80.8385957,0.550571377 C81.009577,0.669456781 81.1115267,0.864515824 81.1115267,1.07276646 L81.1115267,21.9406426 C81.1115267,22.6431707 80.5420152,23.2126822 79.8394872,23.2126822 L54.080686,23.2126822 C53.3781579,23.2126822 52.8086464,22.6431707 52.8086464,21.9406426 L52.8086464,1.07276646 C52.8086464,0.721502437 53.0934022,0.436746681 53.4446662,0.436746681 C53.6529168,0.436746681 53.8479759,0.538696438 53.9668613,0.709677693 L59.8843665,9.22024698 L65.9156964,0.545974759 C66.3167532,-0.0308260059 67.1094633,-0.173294653 67.6862641,0.227762128 Z" id="Shape" fill="#000000"></path>
    </g>
</svg>